<svg xmlns="http://www.w3.org/2000/svg" viewBox="0 0 64 64" role="img" aria-labelledby="title desc">
  <title id="title">Favicon Portafolio Analista</title>
  <desc id="desc">Monograma GA para portafolio de analista de software</desc>
  <defs>
    <linearGradient id="bg" x1="0" y1="0" x2="1" y2="1">
      <stop offset="0%" stop-color="#0f172a"/>
      <stop offset="100%" stop-color="#1e293b"/>
    </linearGradient>
    <linearGradient id="accent" x1="0" y1="0" x2="1" y2="1">
      <stop offset="0%" stop-color="#22c55e"/>
      <stop offset="100%" stop-color="#38bdf8"/>
    </linearGradient>
  </defs>

  <rect width="64" height="64" rx="14" fill="url(#bg)"/>
  <path d="M18 32c0-8.2 5.9-14 14.2-14 4.1 0 7.5 1.3 10.1 3.9l-4.2 4.1c-1.5-1.4-3.4-2.1-5.9-2.1-4.8 0-8.3 3.4-8.3 8.1s3.5 8.1 8.3 8.1c4.1 0 6.8-2.3 7.4-5.4h-7.4v-5.3h13.4c.1.7.2 1.5.2 2.4 0 8.1-5.4 13.9-13.7 13.9C23.9 46 18 40.2 18 32Z" fill="url(#accent)"/>
  <path d="M43 46l-3.1-7.4h-8L28.8 46h-5.7l9.6-22h5.4l10 22H43Zm-9-12.2h4.2l-2.1-5.1-2.1 5.1Z" fill="#f8fafc"/>
</svg>